<svg version="1" xmlns="http://www.w3.org/2000/svg" width="1557.333" height="1557.333" viewBox="0 0 1168.000000 1168.000000"><path d="M7 583.5V1038h169v-61H80V190h96v-61H7v454.5zM993 159.5V190h95v787h-95v61h169V129H993v30.5zM782.1 505.2c-17 31.4-34.8 50.6-54.2 58.5-10.9 4.4-17.8 5.7-30.4 5.6-28-.1-43.8-5-101-31.3-66.1-30.5-88-37.3-120-37.3-26.1 0-47.9 7.1-68.6 22.4-14.2 10.5-34.3 32.5-51.1 55.7-6.5 9.1-7.5 10.9-6.6 12.7 1.7 3.2 31.3 46.4 31.8 46.5.3 0 2.7-4.2 5.4-9.3 14.7-27.8 30.7-45.5 49.1-54.1 12.1-5.7 18.4-7 33.5-7 26.8.1 46.6 6 95 28.6 53.5 25.1 72.5 32.4 96.3 37.2 12 2.5 27.4 3.8 35.7 3.1 43.9-3.6 71.8-22.5 111.9-75.4 5.5-7.3 10.1-13.7 10.1-14.2 0-1-31.8-47.3-32.8-47.7-.4-.1-2.3 2.6-4.1 6z"/></svg>